<?xml version="1.0" standalone="no"?>
<!DOCTYPE svg PUBLIC "-//W3C//DTD SVG 20010904//EN"
 "http://www.w3.org/TR/2001/REC-SVG-20010904/DTD/svg10.dtd">
<svg version="1.0" xmlns="http://www.w3.org/2000/svg"
 width="700.000000pt" height="700.000000pt" viewBox="0 0 700.000000 700.000000"
 preserveAspectRatio="xMidYMid meet">
<metadata>
Created by potrace 1.14, written by Peter Selinger 2001-2017
</metadata>
<g transform="translate(0.000000,700.000000) scale(0.100000,-0.100000)"
fill="#000000" stroke="none">
<path d="M3155 6494 c-1357 -162 -2427 -1199 -2636 -2554 -27 -173 -37 -527
-20 -707 48 -513 213 -977 496 -1403 474 -712 1212 -1179 2070 -1312 169 -26
524 -35 702 -19 608 57 1171 286 1636 666 65 53 117 98 115 100 -2 2 -35 -5
-73 -16 -181 -51 -289 -63 -530 -63 -195 0 -250 3 -360 23 -249 43 -402 89
-555 166 -605 303 -939 975 -811 1632 46 237 140 415 299 564 283 268 711 345
1041 187 204 -97 352 -332 351 -557 -1 -141 -36 -197 -118 -188 -67 7 -91 37
-102 126 -17 132 -90 234 -204 287 -113 52 -269 38 -424 -37 -152 -74 -276
-222 -329 -394 -28 -93 -23 -299 10 -426 63 -242 188 -438 371 -585 118 -94
262 -165 426 -211 103 -28 448 -25 590 5 669 144 1180 625 1354 1272 39 148
56 289 56 476 0 1128 -661 2178 -1685 2679 -322 157 -632 247 -995 289 -168
20 -509 19 -675 0z"/>
</g>
</svg>
